<?xml version="1.0" encoding="utf-8"?>
<!-- Generator: Adobe Illustrator 28.0.0, SVG Export Plug-In . SVG Version: 6.00 Build 0)  -->
<svg version="1.1" id="Laag_1" xmlns="http://www.w3.org/2000/svg" xmlns:xlink="http://www.w3.org/1999/xlink" x="0px" y="0px"
	 viewBox="0 0 3750 2501.2" style="enable-background:new 0 0 3750 2501.2;" xml:space="preserve">
<style type="text/css">
	.st0{fill:#4D4D4D;}
	.st1{fill:#FFFFFF;}
	.st2{fill:#F2F2F2;}
	.st3{fill:#5599FF;}
	.st4{fill:#FF8080;}
	.st5{fill:none;stroke:#FFFFFF;stroke-width:24.0976;stroke-linecap:square;stroke-linejoin:round;stroke-miterlimit:10;}
	.st6{fill:#F7C560;}
	.st7{fill:#FF7180;}
</style>
<path class="st0" d="M1931.6,1835.6c9.4,58.4,32.5,121.1,66.2,179.6c16.6,28.6,35.4,55.6,55.8,80.2v0.9h-357.3v-0.6
	c20.4-24.7,39.2-51.8,55.8-80.5c33.7-58.5,56.8-121.2,66.1-179.6H1931.6"/>
<path class="st0" d="M2068.7,2085.1h-387.3c-12.6,0-22.8,10.1-22.8,22.7c0,12.6,10.2,22.8,22.8,22.8h387.3
	c12.6,0,22.8-10.1,22.8-22.8C2091.4,2095.2,2081.3,2085.1,2068.7,2085.1"/>
<path class="st0" d="M1177.5,779.6h1395c66.7,0,120.4,48.6,120.4,109.1v917.8c0,60.4-53.7,109-120.4,109h-1395
	c-66.7,0-120.4-48.6-120.4-109V888.7C1057,828.3,1110.8,779.6,1177.5,779.6"/>
<path class="st1" d="M1227.3,839.3h1295.5c62,0,111.8,17.4,111.8,82.1v817.8c0,64.7-49.9,116.8-111.8,116.8H1227.3
	c-62,0-111.8-52.1-111.8-116.8V921.4C1115.4,856.7,1165.3,839.3,1227.3,839.3"/>
<path class="st2" d="M2265.1,1510.4l-851.8-2.4c-17.7-0.1-31.9,12.8-31.9,28.9l0.6,118.7c0,16,14.3,29,31.9,29l851.8,2.4
	c17.7,0.1,31.9-12.8,31.9-28.9l-0.6-118.7C2297,1523.4,2282.7,1510.4,2265.1,1510.4"/>
<path class="st3" d="M1519.4,1708.8H2305c34.4,1.1,39.7-44.8,0-48.2h-790c-22.7,0-56.5-1.7-71.8-5c-15.1-3.4-26.9-9.5-35.4-18.1
	c-8.3-8.6-12.4-27.4-12.4-42.9c0-21.4,8.5-43.3,25.4-52.1c17.1-8.9,57.9-13.3,92.6-13.3H2305c41.8-5.5,30.6-48.6,0-48.2h-785.6
	c-44.1,0.5-105.2,1.5-135.2,27.5c-12.7,11-23.6,23.4-29.9,36.4c-6.3,13.1-9.4,28.3-9.4,45.8c0,20.8,3.3,38.7,10,53.8
	c6.8,15,17.2,27.3,31.2,36.8c14.2,9.5,32.3,16.4,54.2,20.9C1462.5,1706.6,1488.8,1708.8,1519.4,1708.8"/>
<path class="st4" d="M2367,1287.1l-837.5-2.8c-18.5-0.1-33.4,14.6-33.4,32.9l0.7,135.2c0,18.3,15,33,33.5,33.1l837.5,2.8
	c18.5,0.1,33.4-14.6,33.4-32.9l-0.7-135.2C2400.5,1301.9,2385.5,1287.1,2367,1287.1"/>
<path class="st5" d="M1593.1,1386.3c0,29.4,23.8,53.2,53.2,53.2c29.4,0,53.2-23.8,53.2-53.2s-23.8-53.2-53.2-53.2
	C1616.9,1333.1,1593.1,1356.9,1593.1,1386.3z"/>
<path class="st1" d="M2175.8,1310.5c-7.3,3.2-11.9,10.5-11.7,18.4c0.3,94-0.9,20.5-0.6,114.8c-0.1,7.1,3.7,13.7,9.9,17.3
	c6.2,3.6,13.8,3.6,19.9-0.1c6.1-3.6,9.9-10.2,9.8-17.4c-0.3-94,0.9-20.6,0.6-114.8c0.1-6.7-3.3-13-8.9-16.7
	C2189.1,1308.4,2182,1307.8,2175.8,1310.5"/>
<path class="st1" d="M2242.8,1310.5c-7.3,3.2-11.9,10.5-11.7,18.4c0.3,94-0.9,20.5-0.6,114.8c-0.1,7.1,3.7,13.7,9.9,17.3
	c6.2,3.6,13.8,3.6,19.9-0.1c6.2-3.6,9.9-10.2,9.8-17.4c-0.3-94,0.9-20.6,0.6-114.8c0.1-6.7-3.3-13-8.9-16.7
	S2248.9,1307.8,2242.8,1310.5"/>
<path class="st1" d="M2108.9,1310.5c-7.3,3.2-11.9,10.5-11.7,18.4c0.3,94-0.9,20.5-0.6,114.8c-0.1,7.1,3.7,13.7,9.9,17.3
	c6.2,3.6,13.8,3.6,19.9-0.1c6.1-3.6,9.9-10.2,9.8-17.4c-0.3-94,0.9-20.6,0.6-114.8c0.1-6.7-3.3-13-8.9-16.7
	C2122.2,1308.4,2115.1,1307.8,2108.9,1310.5"/>
<path class="st6" d="M1543.1,1742.5l-0.7-202.5c0-6.3,3.7-11.3,8.3-11.3l126.6,0.2c4.6,0,8.3,5.1,8.3,11.3l0.7,202.5
	c0,6.3-3.7,11.3-8.3,11.3l-64.4-64l-62.2,63.8C1546.8,1753.8,1543.1,1748.8,1543.1,1742.5"/>
<path class="st6" d="M2213.4,1146l-793.4-2.8c-18.5-0.1-33.4,14.6-33.4,32.9l0.7,79.1c0,18.3,15,33,33.5,33.1l793.5,2.8
	c18.5,0.1,33.4-14.6,33.4-32.9l-0.6-79.1C2246.9,1160.8,2231.9,1146.1,2213.4,1146"/>
<path class="st1" d="M2119.2,1173.9l-120.1-1.2c-6.1,0-11,6.4-11,14.3l0.2,58.9c0,8,4.9,14.4,11,14.4l120.2,1.2
	c6.1,0,11-6.4,11-14.3l-0.2-58.9C2130.2,1180.4,2125.3,1174,2119.2,1173.9"/>
<path class="st2" d="M1582.2,984.6l699.5-2c14.5-0.1,26.2,10.5,26.2,23.7l-0.5,97.5c0,13.2-11.7,23.8-26.2,23.9l-699.5,2
	c-14.5,0-26.2-10.5-26.2-23.7l0.5-97.5C1556,995.3,1567.7,984.7,1582.2,984.6"/>
<path class="st4" d="M2194.4,1147.6h-645c-28.2,0.9-32.6-36.8,0-39.5h648.7c18.6,0,46.4-1.4,59-4.1c12.4-2.8,22.1-7.8,29.1-14.9
	c6.8-7.1,10.2-22.5,10.2-35.2c0-17.6-7-35.5-20.9-42.8c-14.1-7.3-47.5-10.9-76-10.9h-650c-34.4-4.5-25.1-39.9,0-39.6h645
	c36.2,0.4,86.3,1.2,111,22.6c10.4,9,19.4,19.2,24.5,29.9c5.2,10.7,7.7,23.3,7.7,37.6c0,17.1-2.7,31.8-8.2,44.1
	c-5.6,12.3-14.1,22.4-25.7,30.2c-11.6,7.8-26.5,13.5-44.5,17.1C2241.2,1145.8,2219.6,1147.6,2194.4,1147.6"/>
<path class="st3" d="M859.6,843.5c35.2,61.1,103.6,179.5,103.6,179.5c124.7,213.7,692.8-113.8,571.9-321.6
	c0,0-35.6-59.9-117.9-202.4c-21-36.4-60.2-37.3-93.7-17.6c-89,52.1-347.9,198.5-437.2,250.1c-31.8,18.3-56.9,59.8-42.7,84.3
	L859.6,843.5"/>
<path class="st6" d="M889.6,1064c24.5,17.6,62.7,54.1,74.2,82c11.5,27.9-3.9,47.2-20.7,56.8s-35.2,9.4-51-7.2
	c-15.8-16.6-29.2-49.6-36.9-76.8c-7.7-27.2-9.7-48.6-5.3-59.9C854.3,1047.6,865.1,1046.4,889.6,1064"/>
<path class="st3" d="M611.3,901.3L956.2,422c12.6-17.5,40.3-33.3,62.1-35.5l586.1-58.9c21.8-2.2,29.3,10.1,16.7,27.6l-344.9,479.3
	c-12.6,17.5-40.3,33.3-62.1,35.5L628,928.9C606.2,931.1,598.7,918.8,611.3,901.3"/>
<path class="st6" d="M769.6,880.2l312-257.7c5.8-4.8,14.7-5.5,19.7,2.1c4.9,7.5,3,15.6-2.8,20.3l-313,260.3l51.8,88.5
	c0,0-2.5,31.2-25.2,7.8c-11.6-11.9-41.8-79.8-58.2-95.4C747.4,900,763.9,885,769.6,880.2"/>
<path class="st6" d="M1071.6,600.9c-7.5,8.9-11.2,19.8-10.4,30.4c0.8,10.6,6.1,19.9,14.7,26c17.9,12.6,45.1,7.9,60.6-10.6
	c15.5-18.5,13.6-43.8-4.3-56.4c-8.6-6.1-19.8-8.4-31.2-6.4C1089.6,585.9,1079.1,592,1071.6,600.9"/>
<path class="st6" d="M809.2,1000.5c-6,7.8-8.8,17.6-7.6,27.4c1.2,9.7,6.2,18.5,13.9,24.5c16.1,12.4,39.2,9.3,51.8-6.9
	c12.6-16.2,9.7-39.5-6.3-51.9c-7.7-6-17.5-8.6-27.2-7.3C824.1,987.6,815.2,992.7,809.2,1000.5"/>
<path class="st7" d="M2582.1,1162.2l100.7,814.7c2.7,21.8,40.5,34.3,84.9,28.1c44.3-6.2,77.9-28.7,75.2-50.4l-100.7-814.7
	c-2.7-21.8-40.6-34.3-84.9-28.1C2612.9,1117.9,2579.4,1140.4,2582.1,1162.2"/>
<path class="st6" d="M2684.9,1982.9l162.5-19.8l-60.3,170.2L2684.9,1982.9z"/>
<path d="M2787.1,2133.3l12.1-34.5l-32.7,4L2787.1,2133.3z"/>
<path d="M2787.1,2133.3l12.1-34.5l-8.2,1.4L2787.1,2133.3"/>
<path d="M2787.4,2133.3l3.5-33.1l-15.9,1.7L2787.4,2133.3z"/>
<path class="st7" d="M916.7,1938.3c25.4,21.4,77.6,24.6,96.5,25.4c25.8,1.1,55-10.9,59.8-33.2c10.6-49.1-32.6-73.2-90-120.9
	c-32.4-26.9-51.8-40.4-66.1-68.8c-20.3-40.3,4.9-108.5-22.6-133.4c-27.5-24.9-60.3-20.2-84.1-5.4c-18.1,11.3-26.7,34.5-24.6,59.1
	s30.4,55.8,39.1,75.2C858.7,1812.4,860.1,1890.7,916.7,1938.3"/>
<path class="st6" d="M926.4,1996.8c0,27.9,1.1,106.1,1.1,106.1c0,39,148,37.2,148,2.9c0,0,0.8-51.7,0.8-116.8
	c0-16.6-7.7-24.7-16.6-24.6c-23.6,0.3-92.3-0.8-115.9-0.8c-8.4,0-17.4,1.7-17.4,20.4V1996.8"/>
<path d="M928.3,1973.3c0,32.3,143.1,30.8,143.1,2.4c0,0-0.2,53.1-0.2-0.8c-0.1-28.5-141.9-28-142.9-1.1
	C928.3,2006.6,928.3,1940.5,928.3,1973.3"/>
<path class="st1" d="M876.3,1636.9c-0.1,0.2-0.1,0.4-0.1,0.6c1.1,56.4,2,113.2,23.4,155c21.4,41.9,62.5,67.9,81.7,94.2
	c19.2,26.3,17.8,53.7,16.3,81.9c-0.1,0.9,0.4,1.7,1.1,2.2c0.7,0.5,1.7,0.5,2.5,0.1c0.8-0.4,1.3-1.2,1.3-2.1
	c1.5-28.2,2.9-57.3-17.3-85c-20.2-27.7-60.7-53.2-81.3-93.5s-21.8-96.5-22.9-152.9c0-1.2-0.9-2.3-2.1-2.4
	C877.7,1635,876.6,1635.7,876.3,1636.9"/>
<path class="st7" d="M993.9,1801.4c5.9,40.4-25.8,103.1-9.6,121.9c22.2,39.6,89.4,54.8,118.2-0.7c27.5-53,34.5-82.3,13.1-181
	c-11.3-52.3-33.2-60.1,3.5-118.7c18.3-29.2,38.1-71.5,38.8-95c0.6-31.8-25.4-67.9-55.7-78.2c-29.1-9.9-63-1.5-88.2,26.6
	c-25.2,28.2-36.2,49.9-45,92.3C943.1,1693.7,987.8,1759.2,993.9,1801.4"/>
<path class="st1" d="M1079.4,1538.7c-0.1,0.2-0.3,0.3-0.4,0.5c-27.3,49.4-54.8,99-57.2,146c-2.4,46.9,20.1,89.9,21.8,125.9
	c1.7,35.9-16.9,66.4-28.2,92c-11.2,25.6-14.5,45.6-17.8,65.3c-0.1,0.9,0.2,1.7,0.8,2.3c0.7,0.6,1.6,0.7,2.4,0.4
	c0.8-0.3,1.4-1,1.5-1.9c3.2-19.7,6.4-39.1,17.4-64.2s30.4-56.5,28.6-94.2s-24.2-80.2-21.8-125.4c2.3-45.2,29.4-94.4,56.6-143.9
	c0.6-1.1,0.3-2.4-0.7-3.2C1081.7,1537.7,1080.3,1537.8,1079.4,1538.7"/>
<path class="st7" d="M1229.1,1796c9.3-15.8,17.3-36.8,13.7-53.3c-5-22.6-41.7-46.2-67.8-41.6c-44.2,7.8-55.7,45.1-83.6,105.8
	c-15.8,34.2-27.2,49.2-32.5,54.8c-11.2,12-39.8,32.6-47.9,45.8c-8.1,13.2-5,36.6,4.2,46.9c9.2,10.3,40.1,9.7,54.5,3.5
	c14.3-6.2,57.8-67.2,72.5-79.3C1199.9,1831.7,1208.9,1830.5,1229.1,1796"/>
<path class="st1" d="M1200.9,1759.6c-0.6,0-1.1,0.1-1.5,0.5c-23.4,16.3-47,32.9-67.4,60.7c-20.4,27.9-37.5,66.7-53.3,89.2
	c-15.8,22.5-30.3,29.2-43.7,36.2c-13.3,7-24.7,13.7-36.1,20.5c-0.8,0.4-1.2,1.2-1.2,2.1c0,0.9,0.5,1.7,1.3,2.1
	c0.8,0.4,1.7,0.4,2.5-0.1c11.3-6.7,22.6-13.5,35.8-20.4c13.2-6.9,29-14.4,45.4-37.7c16.4-23.3,33.3-62,53.2-89.1
	c19.9-27.2,43-43.3,66.3-59.6c0.9-0.6,1.3-1.7,1-2.7C1202.9,1760.4,1201.9,1759.7,1200.9,1759.6"/>
<path class="st3" d="M2499,339.6l537-1.8c47.4-0.2,85.6,40,85.8,89.9l0.7,257.9c0.1,49.9-37.9,90.1-85.3,90.3l-476.3,1.7l-53.1,58.9
	c0,0,2.7-58.8-7.6-58.8c-47.4,0.1-85.6-40-85.8-89.9l-0.7-257.9C2413.6,379.9,2451.6,339.8,2499,339.6"/>
<path class="st1" d="M2543.8,457.1l441.9,1.2c8.4,0,15.6,9.6,16.1,21.6c0.6,12-5.7,21.6-14.1,21.6l-441.9-1.2
	c-8.4,0-15.6-9.6-16.1-21.6C2529.2,466.6,2535.4,457,2543.8,457.1"/>
<path class="st1" d="M2542.8,602.3l276.7,0.5c8.4,0,15.5,9.6,16.1,21.6c0.6,12-5.7,21.6-14.1,21.6l-276.7-0.5
	c-8.4,0-15.6-9.7-16.1-21.6C2528.1,611.9,2534.4,602.3,2542.8,602.3"/>
</svg>
